<?xml version="1.0" encoding="UTF-8" standalone="no"?>
<!DOCTYPE svg PUBLIC "-//W3C//DTD SVG 1.1//EN"
 "http://www.w3.org/Graphics/SVG/1.1/DTD/svg11.dtd">
<!-- Generated by graphviz version 5.0.0 (0)
 -->
<!-- Pages: 1 -->
<svg width="1079pt" height="1758pt"
 viewBox="0.00 0.00 1079.00 1758.00" xmlns="http://www.w3.org/2000/svg" xmlns:xlink="http://www.w3.org/1999/xlink">
<g id="graph0" class="graph" transform="scale(1 1) rotate(0) translate(4 1754)">
<polygon fill="white" stroke="transparent" points="-4,4 -4,-1754 1075,-1754 1075,4 -4,4"/>
<!-- _analysis -->
<g id="node1" class="node">
<title>_analysis</title>
<polygon fill="none" stroke="black" points="295,-1628 295,-1656 487,-1656 487,-1628 295,-1628"/>
<text text-anchor="start" x="354.5" y="-1639.2" font-family="Helvetica,sans-Serif" font-weight="bold" font-size="16.00">_analysis</text>
<polygon fill="none" stroke="black" points="295,-1603 295,-1628 487,-1628 487,-1603 295,-1603"/>
<text text-anchor="start" x="300" y="-1612.8" font-family="Helvetica,sans-Serif" text-decoration="underline" font-size="14.00">id</text>
<text text-anchor="start" x="311" y="-1612.8" font-family="Helvetica,sans-Serif" font-size="14.00"> [INTEGER]</text>
<polygon fill="none" stroke="black" points="295,-1578 295,-1603 487,-1603 487,-1578 295,-1578"/>
<text text-anchor="start" x="300" y="-1587.8" font-family="Helvetica,sans-Serif" font-size="14.00">macaron_version</text>
<text text-anchor="start" x="405" y="-1587.8" font-family="Helvetica,sans-Serif" font-size="14.00"> [VARCHAR]</text>
<polygon fill="none" stroke="black" points="295,-1553 295,-1578 487,-1578 487,-1553 295,-1553"/>
<text text-anchor="start" x="300" y="-1562.8" font-family="Helvetica,sans-Serif" font-size="14.00">repository</text>
<text text-anchor="start" x="360" y="-1562.8" font-family="Helvetica,sans-Serif" font-size="14.00"> [INTEGER]</text>
<polygon fill="none" stroke="black" points="295,-1528 295,-1553 487,-1553 487,-1528 295,-1528"/>
<text text-anchor="start" x="300" y="-1537.8" font-family="Helvetica,sans-Serif" font-size="14.00">analysis_time</text>
<text text-anchor="start" x="383" y="-1537.8" font-family="Helvetica,sans-Serif" font-size="14.00"> [VARCHAR]</text>
</g>
<!-- _repository_analysis -->
<g id="node2" class="node">
<title>_repository_analysis</title>
<polygon fill="none" stroke="black" points="639,-1718 639,-1746 809,-1746 809,-1718 639,-1718"/>
<text text-anchor="start" x="644" y="-1729.2" font-family="Helvetica,sans-Serif" font-weight="bold" font-size="16.00">_repository_analysis</text>
<polygon fill="none" stroke="black" points="639,-1693 639,-1718 809,-1718 809,-1693 639,-1693"/>
<text text-anchor="start" x="644" y="-1702.8" font-family="Helvetica,sans-Serif" text-decoration="underline" font-size="14.00">analysis_id</text>
<text text-anchor="start" x="711" y="-1702.8" font-family="Helvetica,sans-Serif" font-size="14.00"> [INTEGER]</text>
<polygon fill="none" stroke="black" points="639,-1668 639,-1693 809,-1693 809,-1668 639,-1668"/>
<text text-anchor="start" x="644" y="-1677.8" font-family="Helvetica,sans-Serif" text-decoration="underline" font-size="14.00">repository_id</text>
<text text-anchor="start" x="722" y="-1677.8" font-family="Helvetica,sans-Serif" font-size="14.00"> [INTEGER]</text>
</g>
<!-- _analysis&#45;&#45;_repository_analysis -->
<g id="edge1" class="edge">
<title>_analysis&#45;&#45;_repository_analysis</title>
<path fill="none" stroke="#7f7f7f" stroke-dasharray="5,2" d="M495.37,-1627.91C538.71,-1642.97 588.71,-1660.34 630.78,-1674.96"/>
<text text-anchor="start" x="599.78" y="-1663.76" font-family="Times,serif" font-size="14.00">{0,1}</text>
<text text-anchor="start" x="495.37" y="-1616.71" font-family="Times,serif" font-size="14.00">0..N</text>
</g>
<!-- _repository -->
<g id="node3" class="node">
<title>_repository</title>
<polygon fill="none" stroke="black" points="8.5,-761 8.5,-789 179.5,-789 179.5,-761 8.5,-761"/>
<text text-anchor="start" x="50" y="-772.2" font-family="Helvetica,sans-Serif" font-weight="bold" font-size="16.00">_repository</text>
<polygon fill="none" stroke="black" points="8.5,-736 8.5,-761 179.5,-761 179.5,-736 8.5,-736"/>
<text text-anchor="start" x="13.5" y="-745.8" font-family="Helvetica,sans-Serif" text-decoration="underline" font-size="14.00">id</text>
<text text-anchor="start" x="24.5" y="-745.8" font-family="Helvetica,sans-Serif" font-size="14.00"> [INTEGER]</text>
<polygon fill="none" stroke="black" points="8.5,-711 8.5,-736 179.5,-736 179.5,-711 8.5,-711"/>
<text text-anchor="start" x="13.5" y="-720.8" font-family="Helvetica,sans-Serif" font-size="14.00">remote_path</text>
<text text-anchor="start" x="90.5" y="-720.8" font-family="Helvetica,sans-Serif" font-size="14.00"> [VARCHAR]</text>
<polygon fill="none" stroke="black" points="8.5,-686 8.5,-711 179.5,-711 179.5,-686 8.5,-686"/>
<text text-anchor="start" x="13.5" y="-695.8" font-family="Helvetica,sans-Serif" font-size="14.00">commit_date</text>
<text text-anchor="start" x="92.5" y="-695.8" font-family="Helvetica,sans-Serif" font-size="14.00"> [VARCHAR]</text>
<polygon fill="none" stroke="black" points="8.5,-661 8.5,-686 179.5,-686 179.5,-661 8.5,-661"/>
<text text-anchor="start" x="13.5" y="-670.8" font-family="Helvetica,sans-Serif" font-size="14.00">full_name</text>
<text text-anchor="start" x="73.5" y="-670.8" font-family="Helvetica,sans-Serif" font-size="14.00"> [VARCHAR]</text>
<polygon fill="none" stroke="black" points="8.5,-636 8.5,-661 179.5,-661 179.5,-636 8.5,-636"/>
<text text-anchor="start" x="13.5" y="-645.8" font-family="Helvetica,sans-Serif" font-size="14.00">commit_sha</text>
<text text-anchor="start" x="88.5" y="-645.8" font-family="Helvetica,sans-Serif" font-size="14.00"> [VARCHAR]</text>
<polygon fill="none" stroke="black" points="8.5,-611 8.5,-636 179.5,-636 179.5,-611 8.5,-611"/>
<text text-anchor="start" x="13.5" y="-620.8" font-family="Helvetica,sans-Serif" font-size="14.00">branch_name</text>
<text text-anchor="start" x="97.5" y="-620.8" font-family="Helvetica,sans-Serif" font-size="14.00"> [VARCHAR]</text>
<polygon fill="none" stroke="black" points="8.5,-586 8.5,-611 179.5,-611 179.5,-586 8.5,-586"/>
<text text-anchor="start" x="13.5" y="-595.8" font-family="Helvetica,sans-Serif" font-size="14.00">release_tag</text>
<text text-anchor="start" x="84.5" y="-595.8" font-family="Helvetica,sans-Serif" font-size="14.00"> [VARCHAR]</text>
</g>
<!-- _repository&#45;&#45;_analysis -->
<g id="edge2" class="edge">
<title>_repository&#45;&#45;_analysis</title>
<path fill="none" stroke="#7f7f7f" stroke-dasharray="5,2" d="M182.88,-793.81C184.36,-796.86 185.73,-799.92 187,-803 244.9,-943.76 187.82,-1350 260,-1484 267.79,-1498.47 278.4,-1511.77 290.21,-1523.73"/>
<text text-anchor="start" x="259.21" y="-1512.53" font-family="Times,serif" font-size="14.00">{0,1}</text>
<text text-anchor="start" x="182.88" y="-797.61" font-family="Times,serif" font-size="14.00">0..N</text>
</g>
<!-- _repository&#45;&#45;_repository_analysis -->
<g id="edge13" class="edge">
<title>_repository&#45;&#45;_repository_analysis</title>
<path fill="none" stroke="#7f7f7f" stroke-dasharray="5,2" d="M183.02,-793.76C184.45,-796.82 185.78,-799.9 187,-803 257.48,-982.81 121.87,-1534.03 260,-1669 356.91,-1763.7 526.02,-1750.47 630.84,-1730.19"/>
<text text-anchor="start" x="599.84" y="-1718.99" font-family="Times,serif" font-size="14.00">{0,1}</text>
<text text-anchor="start" x="158.02" y="-797.56" font-family="Times,serif" font-size="14.00">0..N</text>
</g>
<!-- _provenance -->
<g id="node4" class="node">
<title>_provenance</title>
<polygon fill="none" stroke="black" points="268,-1442 268,-1470 514,-1470 514,-1442 268,-1442"/>
<text text-anchor="start" x="341" y="-1453.2" font-family="Helvetica,sans-Serif" font-weight="bold" font-size="16.00">_provenance</text>
<polygon fill="none" stroke="black" points="268,-1417 268,-1442 514,-1442 514,-1417 268,-1417"/>
<text text-anchor="start" x="273" y="-1426.8" font-family="Helvetica,sans-Serif" font-size="14.00">config_source_entry_point</text>
<text text-anchor="start" x="432" y="-1426.8" font-family="Helvetica,sans-Serif" font-size="14.00"> [VARCHAR]</text>
<polygon fill="none" stroke="black" points="268,-1392 268,-1417 514,-1417 514,-1392 268,-1392"/>
<text text-anchor="start" x="273" y="-1401.8" font-family="Helvetica,sans-Serif" font-size="14.00">provenance_json</text>
<text text-anchor="start" x="376" y="-1401.8" font-family="Helvetica,sans-Serif" font-size="14.00"> [VARCHAR]</text>
<polygon fill="none" stroke="black" points="268,-1367 268,-1392 514,-1392 514,-1367 268,-1367"/>
<text text-anchor="start" x="273" y="-1376.8" font-family="Helvetica,sans-Serif" text-decoration="underline" font-size="14.00">id</text>
<text text-anchor="start" x="284" y="-1376.8" font-family="Helvetica,sans-Serif" font-size="14.00"> [INTEGER]</text>
<polygon fill="none" stroke="black" points="268,-1342 268,-1367 514,-1367 514,-1342 268,-1342"/>
<text text-anchor="start" x="273" y="-1351.8" font-family="Helvetica,sans-Serif" font-size="14.00">builder_id</text>
<text text-anchor="start" x="332" y="-1351.8" font-family="Helvetica,sans-Serif" font-size="14.00"> [VARCHAR]</text>
<polygon fill="none" stroke="black" points="268,-1317 268,-1342 514,-1342 514,-1317 268,-1317"/>
<text text-anchor="start" x="273" y="-1326.8" font-family="Helvetica,sans-Serif" font-size="14.00">build_type</text>
<text text-anchor="start" x="335" y="-1326.8" font-family="Helvetica,sans-Serif" font-size="14.00"> [VARCHAR]</text>
<polygon fill="none" stroke="black" points="268,-1292 268,-1317 514,-1317 514,-1292 268,-1292"/>
<text text-anchor="start" x="273" y="-1301.8" font-family="Helvetica,sans-Serif" font-size="14.00">config_source_uri</text>
<text text-anchor="start" x="380" y="-1301.8" font-family="Helvetica,sans-Serif" font-size="14.00"> [VARCHAR]</text>
<polygon fill="none" stroke="black" points="268,-1267 268,-1292 514,-1292 514,-1267 268,-1267"/>
<text text-anchor="start" x="273" y="-1276.8" font-family="Helvetica,sans-Serif" font-size="14.00">release_tag</text>
<text text-anchor="start" x="344" y="-1276.8" font-family="Helvetica,sans-Serif" font-size="14.00"> [VARCHAR]</text>
<polygon fill="none" stroke="black" points="268,-1242 268,-1267 514,-1267 514,-1242 268,-1242"/>
<text text-anchor="start" x="273" y="-1251.8" font-family="Helvetica,sans-Serif" font-size="14.00">release_commit_sha</text>
<text text-anchor="start" x="400" y="-1251.8" font-family="Helvetica,sans-Serif" font-size="14.00"> [VARCHAR]</text>
<polygon fill="none" stroke="black" points="268,-1217 268,-1242 514,-1242 514,-1217 268,-1217"/>
<text text-anchor="start" x="273" y="-1226.8" font-family="Helvetica,sans-Serif" font-size="14.00">repository</text>
<text text-anchor="start" x="333" y="-1226.8" font-family="Helvetica,sans-Serif" font-size="14.00"> [INTEGER]</text>
</g>
<!-- _repository&#45;&#45;_provenance -->
<g id="edge3" class="edge">
<title>_repository&#45;&#45;_provenance</title>
<path fill="none" stroke="#7f7f7f" stroke-dasharray="5,2" d="M182.87,-793.82C184.34,-796.86 185.73,-799.92 187,-803 244.09,-940.96 165.81,-999.08 223,-1137 234.01,-1163.55 249.54,-1189.43 266.74,-1213.39"/>
<text text-anchor="start" x="235.74" y="-1202.19" font-family="Times,serif" font-size="14.00">{0,1}</text>
<text text-anchor="start" x="182.87" y="-782.62" font-family="Times,serif" font-size="14.00">0..N</text>
</g>
<!-- _build_as_code_check -->
<g id="node5" class="node">
<title>_build_as_code_check</title>
<polygon fill="none" stroke="black" points="626,-1330 626,-1358 822,-1358 822,-1330 626,-1330"/>
<text text-anchor="start" x="636" y="-1341.2" font-family="Helvetica,sans-Serif" font-weight="bold" font-size="16.00">_build_as_code_check</text>
<polygon fill="none" stroke="black" points="626,-1305 626,-1330 822,-1330 822,-1305 626,-1305"/>
<text text-anchor="start" x="631" y="-1314.8" font-family="Helvetica,sans-Serif" font-size="14.00">build_tool_name</text>
<text text-anchor="start" x="731" y="-1314.8" font-family="Helvetica,sans-Serif" font-size="14.00"> [VARCHAR]</text>
<polygon fill="none" stroke="black" points="626,-1280 626,-1305 822,-1305 822,-1280 626,-1280"/>
<text text-anchor="start" x="631" y="-1289.8" font-family="Helvetica,sans-Serif" font-size="14.00">repository</text>
<text text-anchor="start" x="691" y="-1289.8" font-family="Helvetica,sans-Serif" font-size="14.00"> [INTEGER]</text>
<polygon fill="none" stroke="black" points="626,-1255 626,-1280 822,-1280 822,-1255 626,-1255"/>
<text text-anchor="start" x="631" y="-1264.8" font-family="Helvetica,sans-Serif" font-size="14.00">ci_service_name</text>
<text text-anchor="start" x="734" y="-1264.8" font-family="Helvetica,sans-Serif" font-size="14.00"> [VARCHAR]</text>
<polygon fill="none" stroke="black" points="626,-1230 626,-1255 822,-1255 822,-1230 626,-1230"/>
<text text-anchor="start" x="631" y="-1239.8" font-family="Helvetica,sans-Serif" font-size="14.00">build_status_url</text>
<text text-anchor="start" x="726" y="-1239.8" font-family="Helvetica,sans-Serif" font-size="14.00"> [VARCHAR]</text>
<polygon fill="none" stroke="black" points="626,-1205 626,-1230 822,-1230 822,-1205 626,-1205"/>
<text text-anchor="start" x="631" y="-1214.8" font-family="Helvetica,sans-Serif" font-size="14.00">deploy_command</text>
<text text-anchor="start" x="740" y="-1214.8" font-family="Helvetica,sans-Serif" font-size="14.00"> [VARCHAR]</text>
<polygon fill="none" stroke="black" points="626,-1180 626,-1205 822,-1205 822,-1180 626,-1180"/>
<text text-anchor="start" x="631" y="-1189.8" font-family="Helvetica,sans-Serif" font-size="14.00">build_trigger</text>
<text text-anchor="start" x="706" y="-1189.8" font-family="Helvetica,sans-Serif" font-size="14.00"> [VARCHAR]</text>
<polygon fill="none" stroke="black" points="626,-1155 626,-1180 822,-1180 822,-1155 626,-1155"/>
<text text-anchor="start" x="631" y="-1164.8" font-family="Helvetica,sans-Serif" font-size="14.00">check_result</text>
<text text-anchor="start" x="707" y="-1164.8" font-family="Helvetica,sans-Serif" font-size="14.00"> [INTEGER]</text>
<polygon fill="none" stroke="black" points="626,-1130 626,-1155 822,-1155 822,-1130 626,-1130"/>
<text text-anchor="start" x="631" y="-1139.8" font-family="Helvetica,sans-Serif" text-decoration="underline" font-size="14.00">id</text>
<text text-anchor="start" x="642" y="-1139.8" font-family="Helvetica,sans-Serif" font-size="14.00"> [INTEGER]</text>
</g>
<!-- _repository&#45;&#45;_build_as_code_check -->
<g id="edge4" class="edge">
<title>_repository&#45;&#45;_build_as_code_check</title>
<path fill="none" stroke="#7f7f7f" stroke-dasharray="5,2" d="M180.2,-793.51C182.51,-796.69 184.79,-799.86 187,-803 222.74,-853.72 217.4,-876.88 260,-922 366.03,-1034.31 517.2,-1130.47 617.61,-1187.74"/>
<text text-anchor="start" x="586.61" y="-1176.54" font-family="Times,serif" font-size="14.00">{0,1}</text>
<text text-anchor="start" x="155.2" y="-797.31" font-family="Times,serif" font-size="14.00">0..N</text>
</g>
<!-- _check_result -->
<g id="node6" class="node">
<title>_check_result</title>
<polygon fill="none" stroke="black" points="320,-736 320,-764 463,-764 463,-736 320,-736"/>
<text text-anchor="start" x="337.5" y="-747.2" font-family="Helvetica,sans-Serif" font-weight="bold" font-size="16.00">_check_result</text>
<polygon fill="none" stroke="black" points="320,-711 320,-736 463,-736 463,-711 320,-711"/>
<text text-anchor="start" x="325" y="-720.8" font-family="Helvetica,sans-Serif" font-size="14.00">skipped</text>
<text text-anchor="start" x="372" y="-720.8" font-family="Helvetica,sans-Serif" font-size="14.00"> [BOOLEAN]</text>
<polygon fill="none" stroke="black" points="320,-686 320,-711 463,-711 463,-686 320,-686"/>
<text text-anchor="start" x="325" y="-695.8" font-family="Helvetica,sans-Serif" text-decoration="underline" font-size="14.00">id</text>
<text text-anchor="start" x="336" y="-695.8" font-family="Helvetica,sans-Serif" font-size="14.00"> [INTEGER]</text>
<polygon fill="none" stroke="black" points="320,-661 320,-686 463,-686 463,-661 320,-661"/>
<text text-anchor="start" x="325" y="-670.8" font-family="Helvetica,sans-Serif" font-size="14.00">repository</text>
<text text-anchor="start" x="385" y="-670.8" font-family="Helvetica,sans-Serif" font-size="14.00"> [INTEGER]</text>
<polygon fill="none" stroke="black" points="320,-636 320,-661 463,-661 463,-636 320,-636"/>
<text text-anchor="start" x="325" y="-645.8" font-family="Helvetica,sans-Serif" font-size="14.00">passed</text>
<text text-anchor="start" x="369" y="-645.8" font-family="Helvetica,sans-Serif" font-size="14.00"> [BOOLEAN]</text>
<polygon fill="none" stroke="black" points="320,-611 320,-636 463,-636 463,-611 320,-611"/>
<text text-anchor="start" x="325" y="-620.8" font-family="Helvetica,sans-Serif" font-size="14.00">check_id</text>
<text text-anchor="start" x="379" y="-620.8" font-family="Helvetica,sans-Serif" font-size="14.00"> [VARCHAR]</text>
</g>
<!-- _repository&#45;&#45;_check_result -->
<g id="edge5" class="edge">
<title>_repository&#45;&#45;_check_result</title>
<path fill="none" stroke="#7f7f7f" stroke-dasharray="5,2" d="M187.19,-688C226.96,-688 272.95,-688 311.07,-688"/>
<text text-anchor="start" x="280.07" y="-676.8" font-family="Times,serif" font-size="14.00">{0,1}</text>
<text text-anchor="start" x="187.19" y="-676.8" font-family="Times,serif" font-size="14.00">0..N</text>
</g>
<!-- _build_script_check -->
<g id="node7" class="node">
<title>_build_script_check</title>
<polygon fill="none" stroke="black" points="631,-1076 631,-1104 818,-1104 818,-1076 631,-1076"/>
<text text-anchor="start" x="647" y="-1087.2" font-family="Helvetica,sans-Serif" font-weight="bold" font-size="16.00">_build_script_check</text>
<polygon fill="none" stroke="black" points="631,-1051 631,-1076 818,-1076 818,-1051 631,-1051"/>
<text text-anchor="start" x="636" y="-1060.8" font-family="Helvetica,sans-Serif" font-size="14.00">build_tool_name</text>
<text text-anchor="start" x="736" y="-1060.8" font-family="Helvetica,sans-Serif" font-size="14.00"> [VARCHAR]</text>
<polygon fill="none" stroke="black" points="631,-1026 631,-1051 818,-1051 818,-1026 631,-1026"/>
<text text-anchor="start" x="636" y="-1035.8" font-family="Helvetica,sans-Serif" font-size="14.00">repository</text>
<text text-anchor="start" x="696" y="-1035.8" font-family="Helvetica,sans-Serif" font-size="14.00"> [INTEGER]</text>
<polygon fill="none" stroke="black" points="631,-1001 631,-1026 818,-1026 818,-1001 631,-1001"/>
<text text-anchor="start" x="636" y="-1010.8" font-family="Helvetica,sans-Serif" font-size="14.00">check_result</text>
<text text-anchor="start" x="712" y="-1010.8" font-family="Helvetica,sans-Serif" font-size="14.00"> [INTEGER]</text>
<polygon fill="none" stroke="black" points="631,-976 631,-1001 818,-1001 818,-976 631,-976"/>
<text text-anchor="start" x="636" y="-985.8" font-family="Helvetica,sans-Serif" text-decoration="underline" font-size="14.00">id</text>
<text text-anchor="start" x="647" y="-985.8" font-family="Helvetica,sans-Serif" font-size="14.00"> [INTEGER]</text>
</g>
<!-- _repository&#45;&#45;_build_script_check -->
<g id="edge6" class="edge">
<title>_repository&#45;&#45;_build_script_check</title>
<path fill="none" stroke="#7f7f7f" stroke-dasharray="5,2" d="M187.19,-786.19C209.75,-806.92 234.7,-827.49 260,-844 375.5,-919.37 524.8,-976.36 622.17,-1008.96"/>
<text text-anchor="start" x="591.17" y="-997.76" font-family="Times,serif" font-size="14.00">{0,1}</text>
<text text-anchor="start" x="187.19" y="-774.99" font-family="Times,serif" font-size="14.00">0..N</text>
</g>
<!-- _build_service_check -->
<g id="node8" class="node">
<title>_build_service_check</title>
<polygon fill="none" stroke="black" points="629,-742 629,-770 819,-770 819,-742 629,-742"/>
<text text-anchor="start" x="640.5" y="-753.2" font-family="Helvetica,sans-Serif" font-weight="bold" font-size="16.00">_build_service_check</text>
<polygon fill="none" stroke="black" points="629,-717 629,-742 819,-742 819,-717 629,-717"/>
<text text-anchor="start" x="634" y="-726.8" font-family="Helvetica,sans-Serif" font-size="14.00">check_result</text>
<text text-anchor="start" x="710" y="-726.8" font-family="Helvetica,sans-Serif" font-size="14.00"> [INTEGER]</text>
<polygon fill="none" stroke="black" points="629,-692 629,-717 819,-717 819,-692 629,-692"/>
<text text-anchor="start" x="634" y="-701.8" font-family="Helvetica,sans-Serif" font-size="14.00">ci_service_name</text>
<text text-anchor="start" x="737" y="-701.8" font-family="Helvetica,sans-Serif" font-size="14.00"> [VARCHAR]</text>
<polygon fill="none" stroke="black" points="629,-667 629,-692 819,-692 819,-667 629,-667"/>
<text text-anchor="start" x="634" y="-676.8" font-family="Helvetica,sans-Serif" font-size="14.00">build_trigger</text>
<text text-anchor="start" x="709" y="-676.8" font-family="Helvetica,sans-Serif" font-size="14.00"> [VARCHAR]</text>
<polygon fill="none" stroke="black" points="629,-642 629,-667 819,-667 819,-642 629,-642"/>
<text text-anchor="start" x="634" y="-651.8" font-family="Helvetica,sans-Serif" font-size="14.00">repository</text>
<text text-anchor="start" x="694" y="-651.8" font-family="Helvetica,sans-Serif" font-size="14.00"> [INTEGER]</text>
<polygon fill="none" stroke="black" points="629,-617 629,-642 819,-642 819,-617 629,-617"/>
<text text-anchor="start" x="634" y="-626.8" font-family="Helvetica,sans-Serif" font-size="14.00">build_tool_name</text>
<text text-anchor="start" x="734" y="-626.8" font-family="Helvetica,sans-Serif" font-size="14.00"> [VARCHAR]</text>
<polygon fill="none" stroke="black" points="629,-592 629,-617 819,-617 819,-592 629,-592"/>
<text text-anchor="start" x="634" y="-601.8" font-family="Helvetica,sans-Serif" text-decoration="underline" font-size="14.00">id</text>
<text text-anchor="start" x="645" y="-601.8" font-family="Helvetica,sans-Serif" font-size="14.00"> [INTEGER]</text>
</g>
<!-- _repository&#45;&#45;_build_service_check -->
<g id="edge7" class="edge">
<title>_repository&#45;&#45;_build_service_check</title>
<path fill="none" stroke="#7f7f7f" stroke-dasharray="5,2" d="M187.41,-748.91C210.25,-760.9 235.28,-771.71 260,-778 372.85,-806.7 408.49,-803.96 522,-778 555.62,-770.31 590.15,-756.25 620.91,-741.17"/>
<text text-anchor="start" x="589.91" y="-729.97" font-family="Times,serif" font-size="14.00">{0,1}</text>
<text text-anchor="start" x="187.41" y="-737.71" font-family="Times,serif" font-size="14.00">0..N</text>
</g>
<!-- _dependency -->
<g id="node9" class="node">
<title>_dependency</title>
<polygon fill="none" stroke="black" points="279,-405 279,-433 503,-433 503,-405 279,-405"/>
<text text-anchor="start" x="339.5" y="-416.2" font-family="Helvetica,sans-Serif" font-weight="bold" font-size="16.00">_dependency</text>
<polygon fill="none" stroke="black" points="279,-380 279,-405 503,-405 503,-380 279,-380"/>
<text text-anchor="start" x="284" y="-389.8" font-family="Helvetica,sans-Serif" text-decoration="underline" font-size="14.00">dependent_repository</text>
<text text-anchor="start" x="415" y="-389.8" font-family="Helvetica,sans-Serif" font-size="14.00"> [INTEGER]</text>
<polygon fill="none" stroke="black" points="279,-355 279,-380 503,-380 503,-355 279,-355"/>
<text text-anchor="start" x="284" y="-364.8" font-family="Helvetica,sans-Serif" text-decoration="underline" font-size="14.00">dependency_repository</text>
<text text-anchor="start" x="425" y="-364.8" font-family="Helvetica,sans-Serif" font-size="14.00"> [INTEGER]</text>
</g>
<!-- _repository&#45;&#45;_dependency -->
<g id="edge8" class="edge">
<title>_repository&#45;&#45;_dependency</title>
<path fill="none" stroke="#7f7f7f" stroke-dasharray="5,2" d="M127.92,-582.23C148.66,-533.49 179.74,-478.55 223,-442 237.04,-430.14 253.67,-420.71 270.91,-413.33"/>
<text text-anchor="start" x="239.91" y="-402.13" font-family="Times,serif" font-size="14.00">{0,1}</text>
<text text-anchor="start" x="127.92" y="-571.03" font-family="Times,serif" font-size="14.00">0..N</text>
</g>
<!-- _repository&#45;&#45;_dependency -->
<g id="edge9" class="edge">
<title>_repository&#45;&#45;_dependency</title>
<path fill="none" stroke="#7f7f7f" stroke-dasharray="5,2" d="M135.25,-582.39C155.75,-539.46 184.56,-492.47 223,-460 237.04,-448.14 253.67,-438.71 270.91,-431.1"/>
<text text-anchor="start" x="239.91" y="-419.9" font-family="Times,serif" font-size="14.00">{0,1}</text>
<text text-anchor="start" x="110.25" y="-571.19" font-family="Times,serif" font-size="14.00">0..N</text>
</g>
<!-- _policy -->
<g id="node10" class="node">
<title>_policy</title>
<polygon fill="none" stroke="black" points="645,-538 645,-566 804,-566 804,-538 645,-538"/>
<text text-anchor="start" x="696.5" y="-549.2" font-family="Helvetica,sans-Serif" font-weight="bold" font-size="16.00">_policy</text>
<polygon fill="none" stroke="black" points="645,-513 645,-538 804,-538 804,-513 645,-513"/>
<text text-anchor="start" x="650" y="-522.8" font-family="Helvetica,sans-Serif" text-decoration="underline" font-size="14.00">id</text>
<text text-anchor="start" x="661" y="-522.8" font-family="Helvetica,sans-Serif" font-size="14.00"> [INTEGER]</text>
<polygon fill="none" stroke="black" points="645,-488 645,-513 804,-513 804,-488 645,-488"/>
<text text-anchor="start" x="650" y="-497.8" font-family="Helvetica,sans-Serif" font-size="14.00">policy_type</text>
<text text-anchor="start" x="718" y="-497.8" font-family="Helvetica,sans-Serif" font-size="14.00"> [VARCHAR]</text>
<polygon fill="none" stroke="black" points="645,-463 645,-488 804,-488 804,-463 645,-463"/>
<text text-anchor="start" x="650" y="-472.8" font-family="Helvetica,sans-Serif" font-size="14.00">text</text>
<text text-anchor="start" x="672" y="-472.8" font-family="Helvetica,sans-Serif" font-size="14.00"> [VARCHAR]</text>
<polygon fill="none" stroke="black" points="645,-438 645,-463 804,-463 804,-438 645,-438"/>
<text text-anchor="start" x="650" y="-447.8" font-family="Helvetica,sans-Serif" font-size="14.00">policy_id</text>
<text text-anchor="start" x="703" y="-447.8" font-family="Helvetica,sans-Serif" font-size="14.00"> [VARCHAR]</text>
<polygon fill="none" stroke="black" points="645,-413 645,-438 804,-438 804,-413 645,-413"/>
<text text-anchor="start" x="650" y="-422.8" font-family="Helvetica,sans-Serif" font-size="14.00">check_result</text>
<text text-anchor="start" x="726" y="-422.8" font-family="Helvetica,sans-Serif" font-size="14.00"> [INTEGER]</text>
<polygon fill="none" stroke="black" points="645,-388 645,-413 804,-413 804,-388 645,-388"/>
<text text-anchor="start" x="650" y="-397.8" font-family="Helvetica,sans-Serif" font-size="14.00">sha</text>
<text text-anchor="start" x="672" y="-397.8" font-family="Helvetica,sans-Serif" font-size="14.00"> [VARCHAR]</text>
<polygon fill="none" stroke="black" points="645,-363 645,-388 804,-388 804,-363 645,-363"/>
<text text-anchor="start" x="650" y="-372.8" font-family="Helvetica,sans-Serif" font-size="14.00">repository</text>
<text text-anchor="start" x="710" y="-372.8" font-family="Helvetica,sans-Serif" font-size="14.00"> [INTEGER]</text>
<polygon fill="none" stroke="black" points="645,-338 645,-363 804,-363 804,-338 645,-338"/>
<text text-anchor="start" x="650" y="-347.8" font-family="Helvetica,sans-Serif" font-size="14.00">description</text>
<text text-anchor="start" x="716" y="-347.8" font-family="Helvetica,sans-Serif" font-size="14.00"> [VARCHAR]</text>
</g>
<!-- _repository&#45;&#45;_policy -->
<g id="edge10" class="edge">
<title>_repository&#45;&#45;_policy</title>
<path fill="none" stroke="#7f7f7f" stroke-dasharray="5,2" d="M187.25,-633.39C210.52,-621.02 235.77,-608.69 260,-599 387.94,-547.82 428.31,-560.67 559,-517 584.42,-508.51 611.62,-498.23 636.42,-488.37"/>
<text text-anchor="start" x="605.42" y="-477.17" font-family="Times,serif" font-size="14.00">{0,1}</text>
<text text-anchor="start" x="187.25" y="-622.19" font-family="Times,serif" font-size="14.00">0..N</text>
</g>
<!-- _provenance_available_check -->
<g id="node11" class="node">
<title>_provenance_available_check</title>
<polygon fill="none" stroke="black" points="603,-921 603,-949 845,-949 845,-921 603,-921"/>
<text text-anchor="start" x="608" y="-932.2" font-family="Helvetica,sans-Serif" font-weight="bold" font-size="16.00">_provenance_available_check</text>
<polygon fill="none" stroke="black" points="603,-896 603,-921 845,-921 845,-896 603,-896"/>
<text text-anchor="start" x="608" y="-905.8" font-family="Helvetica,sans-Serif" font-size="14.00">asset_url</text>
<text text-anchor="start" x="663" y="-905.8" font-family="Helvetica,sans-Serif" font-size="14.00"> [VARCHAR]</text>
<polygon fill="none" stroke="black" points="603,-871 603,-896 845,-896 845,-871 603,-871"/>
<text text-anchor="start" x="608" y="-880.8" font-family="Helvetica,sans-Serif" font-size="14.00">asset_name</text>
<text text-anchor="start" x="683" y="-880.8" font-family="Helvetica,sans-Serif" font-size="14.00"> [VARCHAR]</text>
<polygon fill="none" stroke="black" points="603,-846 603,-871 845,-871 845,-846 603,-846"/>
<text text-anchor="start" x="608" y="-855.8" font-family="Helvetica,sans-Serif" font-size="14.00">check_result</text>
<text text-anchor="start" x="684" y="-855.8" font-family="Helvetica,sans-Serif" font-size="14.00"> [INTEGER]</text>
<polygon fill="none" stroke="black" points="603,-821 603,-846 845,-846 845,-821 603,-821"/>
<text text-anchor="start" x="608" y="-830.8" font-family="Helvetica,sans-Serif" font-size="14.00">repository</text>
<text text-anchor="start" x="668" y="-830.8" font-family="Helvetica,sans-Serif" font-size="14.00"> [INTEGER]</text>
<polygon fill="none" stroke="black" points="603,-796 603,-821 845,-821 845,-796 603,-796"/>
<text text-anchor="start" x="608" y="-805.8" font-family="Helvetica,sans-Serif" text-decoration="underline" font-size="14.00">id</text>
<text text-anchor="start" x="619" y="-805.8" font-family="Helvetica,sans-Serif" font-size="14.00"> [INTEGER]</text>
</g>
<!-- _repository&#45;&#45;_provenance_available_check -->
<g id="edge11" class="edge">
<title>_repository&#45;&#45;_provenance_available_check</title>
<path fill="none" stroke="#7f7f7f" stroke-dasharray="5,2" d="M187.13,-763.6C209.79,-778.66 234.8,-792.68 260,-802 368.69,-842.19 499.84,-859.64 594.76,-867.21"/>
<text text-anchor="start" x="563.76" y="-856.01" font-family="Times,serif" font-size="14.00">{0,1}</text>
<text text-anchor="start" x="187.13" y="-759.9" font-family="Times,serif" font-size="14.00">0..N</text>
</g>
<!-- _provenance_l3_check -->
<g id="node12" class="node">
<title>_provenance_l3_check</title>
<polygon fill="none" stroke="black" points="631,-283 631,-311 818,-311 818,-283 631,-283"/>
<text text-anchor="start" x="636" y="-294.2" font-family="Helvetica,sans-Serif" font-weight="bold" font-size="16.00">_provenance_l3_check</text>
<polygon fill="none" stroke="black" points="631,-258 631,-283 818,-283 818,-258 631,-258"/>
<text text-anchor="start" x="636" y="-267.8" font-family="Helvetica,sans-Serif" font-size="14.00">check_result</text>
<text text-anchor="start" x="712" y="-267.8" font-family="Helvetica,sans-Serif" font-size="14.00"> [INTEGER]</text>
<polygon fill="none" stroke="black" points="631,-233 631,-258 818,-258 818,-233 631,-233"/>
<text text-anchor="start" x="636" y="-242.8" font-family="Helvetica,sans-Serif" text-decoration="underline" font-size="14.00">id</text>
<text text-anchor="start" x="647" y="-242.8" font-family="Helvetica,sans-Serif" font-size="14.00"> [INTEGER]</text>
<polygon fill="none" stroke="black" points="631,-208 631,-233 818,-233 818,-208 631,-208"/>
<text text-anchor="start" x="636" y="-217.8" font-family="Helvetica,sans-Serif" font-size="14.00">repository</text>
<text text-anchor="start" x="696" y="-217.8" font-family="Helvetica,sans-Serif" font-size="14.00"> [INTEGER]</text>
</g>
<!-- _repository&#45;&#45;_provenance_l3_check -->
<g id="edge12" class="edge">
<title>_repository&#45;&#45;_provenance_l3_check</title>
<path fill="none" stroke="#7f7f7f" stroke-dasharray="5,2" d="M181.61,-582.48C204.87,-560.29 231.53,-539.29 260,-525 380.16,-464.68 460.34,-570.34 559,-479 610.58,-431.25 551.61,-380.3 595,-325 602.62,-315.29 612.07,-306.91 622.37,-299.7"/>
<text text-anchor="start" x="591.37" y="-303.5" font-family="Times,serif" font-size="14.00">{0,1}</text>
<text text-anchor="start" x="181.61" y="-571.28" font-family="Times,serif" font-size="14.00">0..N</text>
</g>
<!-- _slsa_level -->
<g id="node13" class="node">
<title>_slsa_level</title>
<polygon fill="none" stroke="black" points="320,-300 320,-328 463,-328 463,-300 320,-300"/>
<text text-anchor="start" x="348.5" y="-311.2" font-family="Helvetica,sans-Serif" font-weight="bold" font-size="16.00">_slsa_level</text>
<polygon fill="none" stroke="black" points="320,-275 320,-300 463,-300 463,-275 320,-275"/>
<text text-anchor="start" x="325" y="-284.8" font-family="Helvetica,sans-Serif" text-decoration="underline" font-size="14.00">repository</text>
<text text-anchor="start" x="385" y="-284.8" font-family="Helvetica,sans-Serif" font-size="14.00"> [INTEGER]</text>
<polygon fill="none" stroke="black" points="320,-250 320,-275 463,-275 463,-250 320,-250"/>
<text text-anchor="start" x="325" y="-259.8" font-family="Helvetica,sans-Serif" font-size="14.00">slsa_level</text>
<text text-anchor="start" x="385" y="-259.8" font-family="Helvetica,sans-Serif" font-size="14.00"> [INTEGER]</text>
<polygon fill="none" stroke="black" points="320,-225 320,-250 463,-250 463,-225 320,-225"/>
<text text-anchor="start" x="325" y="-234.8" font-family="Helvetica,sans-Serif" font-size="14.00">reached</text>
<text text-anchor="start" x="374" y="-234.8" font-family="Helvetica,sans-Serif" font-size="14.00"> [BOOLEAN]</text>
</g>
<!-- _repository&#45;&#45;_slsa_level -->
<g id="edge14" class="edge">
<title>_repository&#45;&#45;_slsa_level</title>
<path fill="none" stroke="#7f7f7f" stroke-dasharray="5,2" d="M124.71,-582.2C150.52,-507.48 194.08,-409.09 260,-342 274.41,-327.33 292.83,-315.41 311.23,-305.98"/>
<text text-anchor="start" x="280.23" y="-294.78" font-family="Times,serif" font-size="14.00">{0,1}</text>
<text text-anchor="start" x="99.71" y="-571" font-family="Times,serif" font-size="14.00">0..N</text>
</g>
<!-- _slsa_requirement -->
<g id="node14" class="node">
<title>_slsa_requirement</title>
<polygon fill="none" stroke="black" points="290,-171 290,-199 492,-199 492,-171 290,-171"/>
<text text-anchor="start" x="320" y="-182.2" font-family="Helvetica,sans-Serif" font-weight="bold" font-size="16.00">_slsa_requirement</text>
<polygon fill="none" stroke="black" points="290,-146 290,-171 492,-171 492,-146 290,-146"/>
<text text-anchor="start" x="295" y="-155.8" font-family="Helvetica,sans-Serif" text-decoration="underline" font-size="14.00">requirement</text>
<text text-anchor="start" x="368" y="-155.8" font-family="Helvetica,sans-Serif" font-size="14.00"> [VARCHAR]</text>
<polygon fill="none" stroke="black" points="290,-121 290,-146 492,-146 492,-121 290,-121"/>
<text text-anchor="start" x="295" y="-130.8" font-family="Helvetica,sans-Serif" font-size="14.00">feedback</text>
<text text-anchor="start" x="350" y="-130.8" font-family="Helvetica,sans-Serif" font-size="14.00"> [VARCHAR]</text>
<polygon fill="none" stroke="black" points="290,-96 290,-121 492,-121 492,-96 290,-96"/>
<text text-anchor="start" x="295" y="-105.8" font-family="Helvetica,sans-Serif" text-decoration="underline" font-size="14.00">repository</text>
<text text-anchor="start" x="355" y="-105.8" font-family="Helvetica,sans-Serif" font-size="14.00"> [INTEGER]</text>
<polygon fill="none" stroke="black" points="290,-71 290,-96 492,-96 492,-71 290,-71"/>
<text text-anchor="start" x="295" y="-80.8" font-family="Helvetica,sans-Serif" font-size="14.00">requirement_name</text>
<text text-anchor="start" x="410" y="-80.8" font-family="Helvetica,sans-Serif" font-size="14.00"> [VARCHAR]</text>
</g>
<!-- _repository&#45;&#45;_slsa_requirement -->
<g id="edge15" class="edge">
<title>_repository&#45;&#45;_slsa_requirement</title>
<path fill="none" stroke="#7f7f7f" stroke-dasharray="5,2" d="M109.86,-582.46C129.5,-478.85 172.11,-321.06 260,-213 266.39,-205.14 273.8,-197.88 281.78,-191.21"/>
<text text-anchor="start" x="250.78" y="-180.01" font-family="Times,serif" font-size="14.00">{0,1}</text>
<text text-anchor="start" x="84.86" y="-571.26" font-family="Times,serif" font-size="14.00">0..N</text>
</g>
<!-- _trusted_builder_check -->
<g id="node15" class="node">
<title>_trusted_builder_check</title>
<polygon fill="none" stroke="black" points="629,-154 629,-182 820,-182 820,-154 629,-154"/>
<text text-anchor="start" x="634" y="-165.2" font-family="Helvetica,sans-Serif" font-weight="bold" font-size="16.00">_trusted_builder_check</text>
<polygon fill="none" stroke="black" points="629,-129 629,-154 820,-154 820,-129 629,-129"/>
<text text-anchor="start" x="634" y="-138.8" font-family="Helvetica,sans-Serif" font-size="14.00">build_tool_name</text>
<text text-anchor="start" x="734" y="-138.8" font-family="Helvetica,sans-Serif" font-size="14.00"> [VARCHAR]</text>
<polygon fill="none" stroke="black" points="629,-104 629,-129 820,-129 820,-104 629,-104"/>
<text text-anchor="start" x="634" y="-113.8" font-family="Helvetica,sans-Serif" font-size="14.00">ci_service_name</text>
<text text-anchor="start" x="737" y="-113.8" font-family="Helvetica,sans-Serif" font-size="14.00"> [VARCHAR]</text>
<polygon fill="none" stroke="black" points="629,-79 629,-104 820,-104 820,-79 629,-79"/>
<text text-anchor="start" x="634" y="-88.8" font-family="Helvetica,sans-Serif" font-size="14.00">repository</text>
<text text-anchor="start" x="694" y="-88.8" font-family="Helvetica,sans-Serif" font-size="14.00"> [INTEGER]</text>
<polygon fill="none" stroke="black" points="629,-54 629,-79 820,-79 820,-54 629,-54"/>
<text text-anchor="start" x="634" y="-63.8" font-family="Helvetica,sans-Serif" text-decoration="underline" font-size="14.00">id</text>
<text text-anchor="start" x="645" y="-63.8" font-family="Helvetica,sans-Serif" font-size="14.00"> [INTEGER]</text>
<polygon fill="none" stroke="black" points="629,-29 629,-54 820,-54 820,-29 629,-29"/>
<text text-anchor="start" x="634" y="-38.8" font-family="Helvetica,sans-Serif" font-size="14.00">check_result</text>
<text text-anchor="start" x="710" y="-38.8" font-family="Helvetica,sans-Serif" font-size="14.00"> [INTEGER]</text>
<polygon fill="none" stroke="black" points="629,-4 629,-29 820,-29 820,-4 629,-4"/>
<text text-anchor="start" x="634" y="-13.8" font-family="Helvetica,sans-Serif" font-size="14.00">build_trigger</text>
<text text-anchor="start" x="709" y="-13.8" font-family="Helvetica,sans-Serif" font-size="14.00"> [VARCHAR]</text>
</g>
<!-- _repository&#45;&#45;_trusted_builder_check -->
<g id="edge16" class="edge">
<title>_repository&#45;&#45;_trusted_builder_check</title>
<path fill="none" stroke="#7f7f7f" stroke-dasharray="5,2" d="M167.54,-582.24C193.43,-551.81 224.96,-521.37 260,-501 362.86,-441.2 434.68,-526.82 522,-446 606.95,-367.37 530.73,-292.27 595,-196 602.21,-185.21 610.89,-175 620.31,-165.5"/>
<text text-anchor="start" x="589.31" y="-154.3" font-family="Times,serif" font-size="14.00">{0,1}</text>
<text text-anchor="start" x="142.54" y="-571.04" font-family="Times,serif" font-size="14.00">0..N</text>
</g>
<!-- _provenance_artifact -->
<g id="node17" class="node">
<title>_provenance_artifact</title>
<polygon fill="none" stroke="black" points="638,-1614 638,-1642 810,-1642 810,-1614 638,-1614"/>
<text text-anchor="start" x="643" y="-1625.2" font-family="Helvetica,sans-Serif" font-weight="bold" font-size="16.00">_provenance_artifact</text>
<polygon fill="none" stroke="black" points="638,-1589 638,-1614 810,-1614 810,-1589 638,-1589"/>
<text text-anchor="start" x="643" y="-1598.8" font-family="Helvetica,sans-Serif" font-size="14.00">provenance</text>
<text text-anchor="start" x="714" y="-1598.8" font-family="Helvetica,sans-Serif" font-size="14.00"> [INTEGER]</text>
<polygon fill="none" stroke="black" points="638,-1564 638,-1589 810,-1589 810,-1564 638,-1564"/>
<text text-anchor="start" x="643" y="-1573.8" font-family="Helvetica,sans-Serif" text-decoration="underline" font-size="14.00">id</text>
<text text-anchor="start" x="654" y="-1573.8" font-family="Helvetica,sans-Serif" font-size="14.00"> [INTEGER]</text>
<polygon fill="none" stroke="black" points="638,-1539 638,-1564 810,-1564 810,-1539 638,-1539"/>
<text text-anchor="start" x="643" y="-1548.8" font-family="Helvetica,sans-Serif" font-size="14.00">name</text>
<text text-anchor="start" x="678" y="-1548.8" font-family="Helvetica,sans-Serif" font-size="14.00"> [VARCHAR]</text>
<polygon fill="none" stroke="black" points="638,-1514 638,-1539 810,-1539 810,-1514 638,-1514"/>
<text text-anchor="start" x="643" y="-1523.8" font-family="Helvetica,sans-Serif" font-size="14.00">verified</text>
<text text-anchor="start" x="687" y="-1523.8" font-family="Helvetica,sans-Serif" font-size="14.00"> [BOOLEAN]</text>
</g>
<!-- _provenance&#45;&#45;_provenance_artifact -->
<g id="edge18" class="edge">
<title>_provenance&#45;&#45;_provenance_artifact</title>
<path fill="none" stroke="#7f7f7f" stroke-dasharray="5,2" d="M522.19,-1448.26C546.05,-1466.34 571.01,-1484.59 595,-1501 606.13,-1508.61 618.02,-1516.31 629.9,-1523.74"/>
<text text-anchor="start" x="598.9" y="-1512.54" font-family="Times,serif" font-size="14.00">{0,1}</text>
<text text-anchor="start" x="522.19" y="-1437.06" font-family="Times,serif" font-size="14.00">0..N</text>
</g>
<!-- _check_result&#45;&#45;_build_as_code_check -->
<g id="edge20" class="edge">
<title>_check_result&#45;&#45;_build_as_code_check</title>
<path fill="none" stroke="#7f7f7f" stroke-dasharray="5,2" d="M420.49,-768.79C454.29,-858.55 516.13,-1005.5 595,-1117 601.96,-1126.84 609.72,-1136.59 617.89,-1146.06"/>
<text text-anchor="start" x="586.89" y="-1134.86" font-family="Times,serif" font-size="14.00">{0,1}</text>
<text text-anchor="start" x="395.49" y="-772.59" font-family="Times,serif" font-size="14.00">0..N</text>
</g>
<!-- _check_result&#45;&#45;_build_script_check -->
<g id="edge21" class="edge">
<title>_check_result&#45;&#45;_build_script_check</title>
<path fill="none" stroke="#7f7f7f" stroke-dasharray="5,2" d="M457.22,-768.73C488.93,-808.97 526.99,-858.79 559,-905 576.27,-929.94 573.4,-941.7 595,-963 603.31,-971.19 612.65,-978.89 622.41,-986"/>
<text text-anchor="start" x="591.41" y="-974.8" font-family="Times,serif" font-size="14.00">{0,1}</text>
<text text-anchor="start" x="432.22" y="-772.53" font-family="Times,serif" font-size="14.00">0..N</text>
</g>
<!-- _check_result&#45;&#45;_build_service_check -->
<g id="edge22" class="edge">
<title>_check_result&#45;&#45;_build_service_check</title>
<path fill="none" stroke="#7f7f7f" stroke-dasharray="5,2" d="M470.86,-686.33C515.8,-685.38 572.6,-684.18 620.91,-683.16"/>
<text text-anchor="start" x="589.91" y="-671.96" font-family="Times,serif" font-size="14.00">{0,1}</text>
<text text-anchor="start" x="470.86" y="-675.13" font-family="Times,serif" font-size="14.00">0..N</text>
</g>
<!-- _check_result&#45;&#45;_policy -->
<g id="edge23" class="edge">
<title>_check_result&#45;&#45;_policy</title>
<path fill="none" stroke="#7f7f7f" stroke-dasharray="5,2" d="M470.55,-672.27C500.32,-663.59 533.21,-650.48 559,-631 581.43,-614.05 576.95,-600.55 595,-579 607.77,-563.76 622.08,-548.27 636.38,-533.59"/>
<text text-anchor="start" x="605.38" y="-522.39" font-family="Times,serif" font-size="14.00">{0,1}</text>
<text text-anchor="start" x="470.55" y="-661.07" font-family="Times,serif" font-size="14.00">0..N</text>
</g>
<!-- _check_result&#45;&#45;_provenance_available_check -->
<g id="edge24" class="edge">
<title>_check_result&#45;&#45;_provenance_available_check</title>
<path fill="none" stroke="#7f7f7f" stroke-dasharray="5,2" d="M470.86,-732.08C507.96,-752.81 553.14,-778.06 594.96,-801.44"/>
<text text-anchor="start" x="563.96" y="-790.24" font-family="Times,serif" font-size="14.00">{0,1}</text>
<text text-anchor="start" x="470.86" y="-720.88" font-family="Times,serif" font-size="14.00">0..N</text>
</g>
<!-- _check_result&#45;&#45;_provenance_l3_check -->
<g id="edge25" class="edge">
<title>_check_result&#45;&#45;_provenance_l3_check</title>
<path fill="none" stroke="#7f7f7f" stroke-dasharray="5,2" d="M470.83,-643.46C503.25,-621.09 538.04,-591.04 559,-555 611.02,-465.56 534.2,-408.72 595,-325 602.4,-314.82 611.85,-306.12 622.27,-298.72"/>
<text text-anchor="start" x="591.27" y="-287.52" font-family="Times,serif" font-size="14.00">{0,1}</text>
<text text-anchor="start" x="470.83" y="-632.26" font-family="Times,serif" font-size="14.00">0..N</text>
</g>
<!-- _check_result&#45;&#45;_trusted_builder_check -->
<g id="edge26" class="edge">
<title>_check_result&#45;&#45;_trusted_builder_check</title>
<path fill="none" stroke="#7f7f7f" stroke-dasharray="5,2" d="M470.53,-610.95C503.3,-574.13 538.45,-527.55 559,-479 608.41,-362.23 533.12,-306.66 595,-196 601.75,-183.93 610.54,-172.73 620.35,-162.51"/>
<text text-anchor="start" x="589.35" y="-166.31" font-family="Times,serif" font-size="14.00">{0,1}</text>
<text text-anchor="start" x="470.53" y="-599.75" font-family="Times,serif" font-size="14.00">0..N</text>
</g>
<!-- _artifact_digest -->
<g id="node16" class="node">
<title>_artifact_digest</title>
<polygon fill="none" stroke="black" points="934.5,-1478 934.5,-1506 1063.5,-1506 1063.5,-1478 934.5,-1478"/>
<text text-anchor="start" x="939.5" y="-1489.2" font-family="Helvetica,sans-Serif" font-weight="bold" font-size="16.00">_artifact_digest</text>
<polygon fill="none" stroke="black" points="934.5,-1453 934.5,-1478 1063.5,-1478 1063.5,-1453 934.5,-1453"/>
<text text-anchor="start" x="939.5" y="-1462.8" font-family="Helvetica,sans-Serif" text-decoration="underline" font-size="14.00">id</text>
<text text-anchor="start" x="950.5" y="-1462.8" font-family="Helvetica,sans-Serif" font-size="14.00"> [INTEGER]</text>
<polygon fill="none" stroke="black" points="934.5,-1428 934.5,-1453 1063.5,-1453 1063.5,-1428 934.5,-1428"/>
<text text-anchor="start" x="939.5" y="-1437.8" font-family="Helvetica,sans-Serif" font-size="14.00">digest</text>
<text text-anchor="start" x="976.5" y="-1437.8" font-family="Helvetica,sans-Serif" font-size="14.00"> [INTEGER]</text>
<polygon fill="none" stroke="black" points="934.5,-1403 934.5,-1428 1063.5,-1428 1063.5,-1403 934.5,-1403"/>
<text text-anchor="start" x="939.5" y="-1412.8" font-family="Helvetica,sans-Serif" font-size="14.00">artifact</text>
<text text-anchor="start" x="980.5" y="-1412.8" font-family="Helvetica,sans-Serif" font-size="14.00"> [INTEGER]</text>
</g>
<!-- _provenance_artifact&#45;&#45;_artifact_digest -->
<g id="edge17" class="edge">
<title>_provenance_artifact&#45;&#45;_artifact_digest</title>
<path fill="none" stroke="#7f7f7f" stroke-dasharray="5,2" d="M818.02,-1536.01C853.32,-1520.08 892.95,-1502.19 925.97,-1487.28"/>
<text text-anchor="start" x="894.97" y="-1476.08" font-family="Times,serif" font-size="14.00">{0,1}</text>
<text text-anchor="start" x="818.02" y="-1524.81" font-family="Times,serif" font-size="14.00">0..N</text>
</g>
<!-- _digest_set -->
<g id="node18" class="node">
<title>_digest_set</title>
<polygon fill="none" stroke="black" points="631,-1459 631,-1487 818,-1487 818,-1459 631,-1459"/>
<text text-anchor="start" x="680" y="-1470.2" font-family="Helvetica,sans-Serif" font-weight="bold" font-size="16.00">_digest_set</text>
<polygon fill="none" stroke="black" points="631,-1434 631,-1459 818,-1459 818,-1434 631,-1434"/>
<text text-anchor="start" x="636" y="-1443.8" font-family="Helvetica,sans-Serif" font-size="14.00">digest</text>
<text text-anchor="start" x="673" y="-1443.8" font-family="Helvetica,sans-Serif" font-size="14.00"> [VARCHAR]</text>
<polygon fill="none" stroke="black" points="631,-1409 631,-1434 818,-1434 818,-1409 631,-1409"/>
<text text-anchor="start" x="636" y="-1418.8" font-family="Helvetica,sans-Serif" font-size="14.00">digest_algorithm</text>
<text text-anchor="start" x="736" y="-1418.8" font-family="Helvetica,sans-Serif" font-size="14.00"> [VARCHAR]</text>
<polygon fill="none" stroke="black" points="631,-1384 631,-1409 818,-1409 818,-1384 631,-1384"/>
<text text-anchor="start" x="636" y="-1393.8" font-family="Helvetica,sans-Serif" text-decoration="underline" font-size="14.00">id</text>
<text text-anchor="start" x="647" y="-1393.8" font-family="Helvetica,sans-Serif" font-size="14.00"> [INTEGER]</text>
</g>
<!-- _digest_set&#45;&#45;_artifact_digest -->
<g id="edge19" class="edge">
<title>_digest_set&#45;&#45;_artifact_digest</title>
<path fill="none" stroke="#7f7f7f" stroke-dasharray="5,2" d="M825.69,-1443.02C858.9,-1445.34 895.13,-1447.86 925.72,-1450"/>
<text text-anchor="start" x="894.72" y="-1438.8" font-family="Times,serif" font-size="14.00">{0,1}</text>
<text text-anchor="start" x="825.69" y="-1431.82" font-family="Times,serif" font-size="14.00">0..N</text>
</g>
<!-- _release_artifact -->
<g id="node19" class="node">
<title>_release_artifact</title>
<polygon fill="none" stroke="black" points="25.5,-840 25.5,-868 162.5,-868 162.5,-840 25.5,-840"/>
<text text-anchor="start" x="30.5" y="-851.2" font-family="Helvetica,sans-Serif" font-weight="bold" font-size="16.00">_release_artifact</text>
<polygon fill="none" stroke="black" points="25.5,-815 25.5,-840 162.5,-840 162.5,-815 25.5,-815"/>
<text text-anchor="start" x="30.5" y="-824.8" font-family="Helvetica,sans-Serif" text-decoration="underline" font-size="14.00">id</text>
<text text-anchor="start" x="41.5" y="-824.8" font-family="Helvetica,sans-Serif" font-size="14.00"> [INTEGER]</text>
</g>
</g>
</svg>
